<svg xmlns="http://www.w3.org/2000/svg" viewBox="0 0 64 64"><path d="M9 60q2-18 14-22h18q12 4 14 22z" fill="#315644" stroke="#171513" stroke-width="2.5"/><path d="M19 42l13 8 13-8-4 14H23z" fill="#e8ddc4" stroke="#171513" stroke-width="2"/><path d="M21 22q-1-12 11-14 13 1 12 15l-2 10q-5 6-11 4-8-3-10-15z" fill="#bd8972" stroke="#171513" stroke-width="2.5"/><path d="M19 22q-1-14 13-15 13 2 14 16l-5-3-4-9-7 5-8 1z" fill="#171513"/><path d="M21 9h23l5 7H17z" fill="#315644" stroke="#171513" stroke-width="2.5"/><path d="M22 30q5-4 10 0 5-4 10 0l-5 3-5-1-5 1zM25 34q7 2 14 0l-3 5-2 10-3 8-3-8-2-10z" fill="#171513"/><path d="M20 45l-7 5M44 45l7 5" stroke="#e8ddc4" stroke-width="3" stroke-linecap="round"/></svg>
