<svg xmlns="http://www.w3.org/2000/svg" viewBox="0 0 64 64"><path d="M47 17q12 7 8 22-2 9-8 12" fill="none" stroke="#51483e" stroke-width="3"/><path d="M11 60q2-18 15-22h18q12 4 13 22z" fill="#65727d" stroke="#171513" stroke-width="2.5"/><path d="M20 42l12 8 12-8-4 14H24z" fill="#e8ddc4" stroke="#171513" stroke-width="2"/><path d="M21 22q-1-12 11-14 13 1 12 15l-2 10q-5 6-11 4-8-3-10-15z" fill="#c99f7c" stroke="#171513" stroke-width="2.5"/><path d="M20 21q0-13 12-14 12 1 13 14l-5-3-5-9-7 7-8 1z" fill="#d5d7d4" stroke="#171513" stroke-width="1"/><path d="M20 11q12-9 24 0l4 6H17z" fill="#77838d" stroke="#171513" stroke-width="2.5"/><path d="M26 30h4m7 0h4" stroke="#171513" stroke-width="2.5" stroke-linecap="round"/><path d="M29 37h7" stroke="#51483e" stroke-width="1.5" stroke-linecap="round"/></svg>
