<svg xmlns="http://www.w3.org/2000/svg" viewBox="0 0 64 64"><path d="M7 60q1-19 15-23h20q14 4 15 23z" fill="#34302c" stroke="#171513" stroke-width="3"/><path d="M15 42l17 8 17-8-4 16H20z" fill="#8b3c32" stroke="#171513" stroke-width="2"/><path d="M18 21q0-13 14-14 15 1 15 16l-3 13q-6 7-13 5-10-3-13-20z" fill="#c89d7e" stroke="#171513" stroke-width="3"/><path d="M16 20Q15 5 32 5t17 16l-5-3-5-8-7 5-10 2z" fill="#292724"/><path d="M19 12q12-10 28 0l4 6H15z" fill="#423d38" stroke="#171513" stroke-width="3"/><path d="M20 29q5-4 11 0l2 2 3-2q5-4 11 0l-5 4-7-1-7 1z" fill="#171513"/><path d="M23 36q9 3 18 0l-2 7-3 7-4 4-4-5-3-7z" fill="#171513"/></svg>
