<svg xmlns="http://www.w3.org/2000/svg" width="1120" height="620" viewBox="0 0 560 310" role="img" aria-labelledby="title desc">
<title id="title">Dungeon exact-cell review board</title>
<desc id="desc">Concept-only deterministic composition using 26 unit map cells. One explored room connects through a one-cell corridor to a second room with fog over its east side.</desc>
<rect width="560" height="310" fill="#E8DDC4"/>
<text x="24" y="27" font-family="sans-serif" font-size="9" font-weight="700" fill="#171513">DUNGEON CELL GRID REVIEW · 26px LOGICAL CELLS · CONCEPT</text>
<text x="24" y="41" font-family="sans-serif" font-size="6" fill="#756C63">Atlas crops are clipped to single cells; board display is 2×. Illustrative layout only.</text>
<svg x="28" y="54" width="26" height="26" viewBox="320 0 320 320" preserveAspectRatio="none" opacity="1"><image href="dungeon-surfaces-concept-v1-20261006.jpg" width="960" height="640"/></svg><svg x="54" y="54" width="26" height="26" viewBox="320 0 320 320" preserveAspectRatio="none" opacity="1"><image href="dungeon-surfaces-concept-v1-20261006.jpg" width="960" height="640"/></svg><svg x="80" y="54" width="26" height="26" viewBox="320 0 320 320" preserveAspectRatio="none" opacity="1"><image href="dungeon-surfaces-concept-v1-20261006.jpg" width="960" height="640"/></svg><svg x="106" y="54" width="26" height="26" viewBox="320 0 320 320" preserveAspectRatio="none" opacity="1"><image href="dungeon-surfaces-concept-v1-20261006.jpg" width="960" height="640"/></svg><svg x="132" y="54" width="26" height="26" viewBox="320 0 320 320" preserveAspectRatio="none" opacity="1"><image href="dungeon-surfaces-concept-v1-20261006.jpg" width="960" height="640"/></svg><svg x="158" y="54" width="26" height="26" viewBox="320 0 320 320" preserveAspectRatio="none" opacity="1"><image href="dungeon-surfaces-concept-v1-20261006.jpg" width="960" height="640"/></svg><svg x="184" y="54" width="26" height="26" viewBox="320 0 320 320" preserveAspectRatio="none" opacity="1"><image href="dungeon-surfaces-concept-v1-20261006.jpg" width="960" height="640"/></svg><svg x="28" y="80" width="26" height="26" viewBox="320 0 320 320" preserveAspectRatio="none" opacity="1"><image href="dungeon-surfaces-concept-v1-20261006.jpg" width="960" height="640"/></svg><svg x="54" y="80" width="26" height="26" viewBox="0 0 320 320" preserveAspectRatio="none" opacity="1"><image href="dungeon-surfaces-concept-v1-20261006.jpg" width="960" height="640"/></svg><svg x="80" y="80" width="26" height="26" viewBox="0 0 320 320" preserveAspectRatio="none" opacity="1"><image href="dungeon-surfaces-concept-v1-20261006.jpg" width="960" height="640"/></svg><svg x="106" y="80" width="26" height="26" viewBox="0 0 320 320" preserveAspectRatio="none" opacity="1"><image href="dungeon-surfaces-concept-v1-20261006.jpg" width="960" height="640"/></svg><svg x="132" y="80" width="26" height="26" viewBox="0 0 320 320" preserveAspectRatio="none" opacity="1"><image href="dungeon-surfaces-concept-v1-20261006.jpg" width="960" height="640"/></svg><svg x="158" y="80" width="26" height="26" viewBox="0 0 320 320" preserveAspectRatio="none" opacity="1"><image href="dungeon-surfaces-concept-v1-20261006.jpg" width="960" height="640"/></svg><svg x="184" y="80" width="26" height="26" viewBox="320 0 320 320" preserveAspectRatio="none" opacity="1"><image href="dungeon-surfaces-concept-v1-20261006.jpg" width="960" height="640"/></svg><svg x="28" y="106" width="26" height="26" viewBox="320 0 320 320" preserveAspectRatio="none" opacity="1"><image href="dungeon-surfaces-concept-v1-20261006.jpg" width="960" height="640"/></svg><svg x="54" y="106" width="26" height="26" viewBox="0 0 320 320" preserveAspectRatio="none" opacity="1"><image href="dungeon-surfaces-concept-v1-20261006.jpg" width="960" height="640"/></svg><svg x="80" y="106" width="26" height="26" viewBox="0 0 320 320" preserveAspectRatio="none" opacity="1"><image href="dungeon-surfaces-concept-v1-20261006.jpg" width="960" height="640"/></svg><svg x="106" y="106" width="26" height="26" viewBox="0 0 320 320" preserveAspectRatio="none" opacity="1"><image href="dungeon-surfaces-concept-v1-20261006.jpg" width="960" height="640"/></svg><svg x="132" y="106" width="26" height="26" viewBox="0 0 320 320" preserveAspectRatio="none" opacity="1"><image href="dungeon-surfaces-concept-v1-20261006.jpg" width="960" height="640"/></svg><svg x="158" y="106" width="26" height="26" viewBox="0 0 320 320" preserveAspectRatio="none" opacity="1"><image href="dungeon-surfaces-concept-v1-20261006.jpg" width="960" height="640"/></svg><svg x="184" y="106" width="26" height="26" viewBox="320 0 320 320" preserveAspectRatio="none" opacity="1"><image href="dungeon-surfaces-concept-v1-20261006.jpg" width="960" height="640"/></svg><svg x="28" y="132" width="26" height="26" viewBox="320 0 320 320" preserveAspectRatio="none" opacity="1"><image href="dungeon-surfaces-concept-v1-20261006.jpg" width="960" height="640"/></svg><svg x="54" y="132" width="26" height="26" viewBox="0 0 320 320" preserveAspectRatio="none" opacity="1"><image href="dungeon-surfaces-concept-v1-20261006.jpg" width="960" height="640"/></svg><svg x="80" y="132" width="26" height="26" viewBox="0 0 320 320" preserveAspectRatio="none" opacity="1"><image href="dungeon-surfaces-concept-v1-20261006.jpg" width="960" height="640"/></svg><svg x="106" y="132" width="26" height="26" viewBox="0 0 320 320" preserveAspectRatio="none" opacity="1"><image href="dungeon-surfaces-concept-v1-20261006.jpg" width="960" height="640"/></svg><svg x="132" y="132" width="26" height="26" viewBox="0 0 320 320" preserveAspectRatio="none" opacity="1"><image href="dungeon-surfaces-concept-v1-20261006.jpg" width="960" height="640"/></svg><svg x="158" y="132" width="26" height="26" viewBox="0 0 320 320" preserveAspectRatio="none" opacity="1"><image href="dungeon-surfaces-concept-v1-20261006.jpg" width="960" height="640"/></svg><svg x="28" y="158" width="26" height="26" viewBox="320 0 320 320" preserveAspectRatio="none" opacity="1"><image href="dungeon-surfaces-concept-v1-20261006.jpg" width="960" height="640"/></svg><svg x="54" y="158" width="26" height="26" viewBox="0 0 320 320" preserveAspectRatio="none" opacity="1"><image href="dungeon-surfaces-concept-v1-20261006.jpg" width="960" height="640"/></svg><svg x="80" y="158" width="26" height="26" viewBox="0 0 320 320" preserveAspectRatio="none" opacity="1"><image href="dungeon-surfaces-concept-v1-20261006.jpg" width="960" height="640"/></svg><svg x="106" y="158" width="26" height="26" viewBox="0 0 320 320" preserveAspectRatio="none" opacity="1"><image href="dungeon-surfaces-concept-v1-20261006.jpg" width="960" height="640"/></svg><svg x="132" y="158" width="26" height="26" viewBox="0 0 320 320" preserveAspectRatio="none" opacity="1"><image href="dungeon-surfaces-concept-v1-20261006.jpg" width="960" height="640"/></svg><svg x="158" y="158" width="26" height="26" viewBox="0 0 320 320" preserveAspectRatio="none" opacity="1"><image href="dungeon-surfaces-concept-v1-20261006.jpg" width="960" height="640"/></svg><svg x="184" y="158" width="26" height="26" viewBox="320 0 320 320" preserveAspectRatio="none" opacity="1"><image href="dungeon-surfaces-concept-v1-20261006.jpg" width="960" height="640"/></svg><svg x="28" y="184" width="26" height="26" viewBox="320 0 320 320" preserveAspectRatio="none" opacity="1"><image href="dungeon-surfaces-concept-v1-20261006.jpg" width="960" height="640"/></svg><svg x="54" y="184" width="26" height="26" viewBox="0 0 320 320" preserveAspectRatio="none" opacity="1"><image href="dungeon-surfaces-concept-v1-20261006.jpg" width="960" height="640"/></svg><svg x="80" y="184" width="26" height="26" viewBox="0 0 320 320" preserveAspectRatio="none" opacity="1"><image href="dungeon-surfaces-concept-v1-20261006.jpg" width="960" height="640"/></svg><svg x="106" y="184" width="26" height="26" viewBox="0 0 320 320" preserveAspectRatio="none" opacity="1"><image href="dungeon-surfaces-concept-v1-20261006.jpg" width="960" height="640"/></svg><svg x="132" y="184" width="26" height="26" viewBox="0 0 320 320" preserveAspectRatio="none" opacity="1"><image href="dungeon-surfaces-concept-v1-20261006.jpg" width="960" height="640"/></svg><svg x="158" y="184" width="26" height="26" viewBox="0 0 320 320" preserveAspectRatio="none" opacity="1"><image href="dungeon-surfaces-concept-v1-20261006.jpg" width="960" height="640"/></svg><svg x="184" y="184" width="26" height="26" viewBox="320 0 320 320" preserveAspectRatio="none" opacity="1"><image href="dungeon-surfaces-concept-v1-20261006.jpg" width="960" height="640"/></svg><svg x="28" y="210" width="26" height="26" viewBox="320 0 320 320" preserveAspectRatio="none" opacity="1"><image href="dungeon-surfaces-concept-v1-20261006.jpg" width="960" height="640"/></svg><svg x="54" y="210" width="26" height="26" viewBox="320 0 320 320" preserveAspectRatio="none" opacity="1"><image href="dungeon-surfaces-concept-v1-20261006.jpg" width="960" height="640"/></svg><svg x="80" y="210" width="26" height="26" viewBox="320 0 320 320" preserveAspectRatio="none" opacity="1"><image href="dungeon-surfaces-concept-v1-20261006.jpg" width="960" height="640"/></svg><svg x="106" y="210" width="26" height="26" viewBox="320 0 320 320" preserveAspectRatio="none" opacity="1"><image href="dungeon-surfaces-concept-v1-20261006.jpg" width="960" height="640"/></svg><svg x="132" y="210" width="26" height="26" viewBox="320 0 320 320" preserveAspectRatio="none" opacity="1"><image href="dungeon-surfaces-concept-v1-20261006.jpg" width="960" height="640"/></svg><svg x="158" y="210" width="26" height="26" viewBox="320 0 320 320" preserveAspectRatio="none" opacity="1"><image href="dungeon-surfaces-concept-v1-20261006.jpg" width="960" height="640"/></svg><svg x="184" y="210" width="26" height="26" viewBox="320 0 320 320" preserveAspectRatio="none" opacity="1"><image href="dungeon-surfaces-concept-v1-20261006.jpg" width="960" height="640"/></svg><svg x="210" y="132" width="26" height="26" viewBox="640 0 320 320" preserveAspectRatio="none" opacity="1" transform="rotate(90 223 145)"><image href="dungeon-surfaces-concept-v1-20261006.jpg" width="960" height="640"/></svg><svg x="236" y="132" width="26" height="26" viewBox="640 0 320 320" preserveAspectRatio="none" opacity="1" transform="rotate(90 249 145)"><image href="dungeon-surfaces-concept-v1-20261006.jpg" width="960" height="640"/></svg><svg x="262" y="132" width="26" height="26" viewBox="640 0 320 320" preserveAspectRatio="none" opacity="1" transform="rotate(90 275 145)"><image href="dungeon-surfaces-concept-v1-20261006.jpg" width="960" height="640"/></svg><svg x="288" y="80" width="26" height="26" viewBox="320 0 320 320" preserveAspectRatio="none" opacity="1"><image href="dungeon-surfaces-concept-v1-20261006.jpg" width="960" height="640"/></svg><svg x="314" y="80" width="26" height="26" viewBox="320 0 320 320" preserveAspectRatio="none" opacity="1"><image href="dungeon-surfaces-concept-v1-20261006.jpg" width="960" height="640"/></svg><svg x="340" y="80" width="26" height="26" viewBox="320 0 320 320" preserveAspectRatio="none" opacity="1"><image href="dungeon-surfaces-concept-v1-20261006.jpg" width="960" height="640"/></svg><svg x="366" y="80" width="26" height="26" viewBox="320 0 320 320" preserveAspectRatio="none" opacity="1"><image href="dungeon-surfaces-concept-v1-20261006.jpg" width="960" height="640"/></svg><svg x="392" y="80" width="26" height="26" viewBox="320 0 320 320" preserveAspectRatio="none" opacity="1"><image href="dungeon-surfaces-concept-v1-20261006.jpg" width="960" height="640"/></svg><svg x="288" y="106" width="26" height="26" viewBox="320 0 320 320" preserveAspectRatio="none" opacity="1"><image href="dungeon-surfaces-concept-v1-20261006.jpg" width="960" height="640"/></svg><svg x="314" y="106" width="26" height="26" viewBox="0 0 320 320" preserveAspectRatio="none" opacity="1"><image href="dungeon-surfaces-concept-v1-20261006.jpg" width="960" height="640"/></svg><svg x="340" y="106" width="26" height="26" viewBox="0 0 320 320" preserveAspectRatio="none" opacity="1"><image href="dungeon-surfaces-concept-v1-20261006.jpg" width="960" height="640"/></svg><svg x="366" y="106" width="26" height="26" viewBox="0 0 320 320" preserveAspectRatio="none" opacity="1"><image href="dungeon-surfaces-concept-v1-20261006.jpg" width="960" height="640"/></svg><svg x="392" y="106" width="26" height="26" viewBox="320 0 320 320" preserveAspectRatio="none" opacity="1"><image href="dungeon-surfaces-concept-v1-20261006.jpg" width="960" height="640"/></svg><svg x="314" y="132" width="26" height="26" viewBox="0 0 320 320" preserveAspectRatio="none" opacity="1"><image href="dungeon-surfaces-concept-v1-20261006.jpg" width="960" height="640"/></svg><svg x="340" y="132" width="26" height="26" viewBox="0 0 320 320" preserveAspectRatio="none" opacity="1"><image href="dungeon-surfaces-concept-v1-20261006.jpg" width="960" height="640"/></svg><svg x="366" y="132" width="26" height="26" viewBox="0 0 320 320" preserveAspectRatio="none" opacity="1"><image href="dungeon-surfaces-concept-v1-20261006.jpg" width="960" height="640"/></svg><svg x="392" y="132" width="26" height="26" viewBox="320 0 320 320" preserveAspectRatio="none" opacity="1"><image href="dungeon-surfaces-concept-v1-20261006.jpg" width="960" height="640"/></svg><svg x="288" y="158" width="26" height="26" viewBox="320 0 320 320" preserveAspectRatio="none" opacity="1"><image href="dungeon-surfaces-concept-v1-20261006.jpg" width="960" height="640"/></svg><svg x="314" y="158" width="26" height="26" viewBox="0 0 320 320" preserveAspectRatio="none" opacity="1"><image href="dungeon-surfaces-concept-v1-20261006.jpg" width="960" height="640"/></svg><svg x="340" y="158" width="26" height="26" viewBox="0 0 320 320" preserveAspectRatio="none" opacity="1"><image href="dungeon-surfaces-concept-v1-20261006.jpg" width="960" height="640"/></svg><svg x="366" y="158" width="26" height="26" viewBox="0 0 320 320" preserveAspectRatio="none" opacity="1"><image href="dungeon-surfaces-concept-v1-20261006.jpg" width="960" height="640"/></svg><svg x="392" y="158" width="26" height="26" viewBox="320 0 320 320" preserveAspectRatio="none" opacity="1"><image href="dungeon-surfaces-concept-v1-20261006.jpg" width="960" height="640"/></svg><svg x="288" y="184" width="26" height="26" viewBox="320 0 320 320" preserveAspectRatio="none" opacity="1"><image href="dungeon-surfaces-concept-v1-20261006.jpg" width="960" height="640"/></svg><svg x="314" y="184" width="26" height="26" viewBox="320 0 320 320" preserveAspectRatio="none" opacity="1"><image href="dungeon-surfaces-concept-v1-20261006.jpg" width="960" height="640"/></svg><svg x="340" y="184" width="26" height="26" viewBox="320 0 320 320" preserveAspectRatio="none" opacity="1"><image href="dungeon-surfaces-concept-v1-20261006.jpg" width="960" height="640"/></svg><svg x="366" y="184" width="26" height="26" viewBox="320 0 320 320" preserveAspectRatio="none" opacity="1"><image href="dungeon-surfaces-concept-v1-20261006.jpg" width="960" height="640"/></svg><svg x="392" y="184" width="26" height="26" viewBox="320 0 320 320" preserveAspectRatio="none" opacity="1"><image href="dungeon-surfaces-concept-v1-20261006.jpg" width="960" height="640"/></svg><svg x="28" y="132" width="26" height="26" viewBox="640 320 320 320" preserveAspectRatio="none" opacity="1"><image href="dungeon-surfaces-concept-v1-20261006.jpg" width="960" height="640"/></svg><svg x="158" y="80" width="26" height="26" viewBox="320 320 320 320" preserveAspectRatio="none" opacity="1"><image href="dungeon-surfaces-concept-v1-20261006.jpg" width="960" height="640"/></svg><svg x="54" y="106" width="26" height="26" viewBox="0 0 240 240" preserveAspectRatio="none"><image href="dungeon-objects-concept-v1-20261006.jpg" width="960" height="480"/></svg><svg x="158" y="106" width="26" height="26" viewBox="240 0 240 240" preserveAspectRatio="none"><image href="dungeon-objects-concept-v1-20261006.jpg" width="960" height="480"/></svg><image href="liu-bei-exploration-token-concept-v2-20261006.png" x="80" y="158" width="26" height="26" preserveAspectRatio="xMidYMid meet"/><svg x="340" y="132" width="26" height="26" viewBox="240 240 240 240" preserveAspectRatio="none"><image href="dungeon-objects-concept-v1-20261006.jpg" width="960" height="480"/></svg><svg x="106" y="106" width="26" height="26" viewBox="480 240 240 240" preserveAspectRatio="none"><image href="dungeon-objects-concept-v1-20261006.jpg" width="960" height="480"/></svg><image href="dungeon-trap-mark-concept-v2-20261006.png" x="132" y="158" width="26" height="26" preserveAspectRatio="xMidYMid meet"/><image href="dungeon-sorcery-mark-concept-v2-20261006.png" x="158" y="158" width="26" height="26" preserveAspectRatio="xMidYMid meet"/><svg x="366" y="106" width="26" height="26" viewBox="0 320 320 320" preserveAspectRatio="none" opacity="0.54"><image href="dungeon-surfaces-concept-v1-20261006.jpg" width="960" height="640"/></svg><svg x="366" y="132" width="26" height="26" viewBox="0 320 320 320" preserveAspectRatio="none" opacity="0.54"><image href="dungeon-surfaces-concept-v1-20261006.jpg" width="960" height="640"/></svg><svg x="366" y="158" width="26" height="26" viewBox="0 320 320 320" preserveAspectRatio="none" opacity="0.54"><image href="dungeon-surfaces-concept-v1-20261006.jpg" width="960" height="640"/></svg><g stroke="#171513" stroke-opacity=".16" stroke-width=".35"><path d="M28 54V236"/><path d="M54 54V236"/><path d="M80 54V236"/><path d="M106 54V236"/><path d="M132 54V236"/><path d="M158 54V236"/><path d="M184 54V236"/><path d="M210 54V236"/><path d="M236 54V236"/><path d="M262 54V236"/><path d="M288 54V236"/><path d="M314 54V236"/><path d="M340 54V236"/><path d="M366 54V236"/><path d="M392 54V236"/><path d="M418 54V236"/><path d="M28 54H418"/><path d="M28 80H418"/><path d="M28 106H418"/><path d="M28 132H418"/><path d="M28 158H418"/><path d="M28 184H418"/><path d="M28 210H418"/><path d="M28 236H418"/></g>
<g font-family="sans-serif" fill="#171513">
<text x="432" y="64" font-size="7" font-weight="700">CELL CHECK</text>
<text x="432" y="80" font-size="6">corridor width: 1 cell</text>
<text x="432" y="94" font-size="6">stair / gate: 1 cell</text>
<text x="432" y="108" font-size="6">chest / pot: 1 cell each</text>
<text x="432" y="122" font-size="6">player / scout: 1 cell each</text>
<text x="432" y="136" font-size="6">trap / sorcery: 1 cell each</text>
<text x="432" y="150" font-size="6">fog overlays explored edge</text>
<text x="432" y="177" font-size="7" font-weight="700">VISUAL QA</text>
<text x="432" y="193" font-size="6">room walls meet floor</text>
<text x="432" y="207" font-size="6">opening joins corridor</text>
<text x="432" y="221" font-size="6">angular trap / open ring</text>
<text x="432" y="235" font-size="6">dense sorcery detail at 26px</text>
<text x="432" y="249" font-size="6">fog opacity needs live review</text>
<text x="432" y="269" font-size="6" fill="#756C63">Layout is not a topology spec.</text>
<text x="24" y="263" font-size="6" fill="#756C63">Production loading, runtime cropping, Canvas interaction, and mobile behavior are NOT_RUN.</text>
</g>
</svg>
