<svg xmlns="http://www.w3.org/2000/svg" viewBox="0 0 64 64"><title>boss-meng-you</title><g stroke="#171513" stroke-width="3" stroke-linecap="round" stroke-linejoin="round"><path fill="#171513" d="M22 48h8l-1 12H17l3-6zm12 0h8l3 6 2 6H35z"/><path fill="#756c63" d="M17 29 47 29 54 51 44 57 20 57 10 51z"/><path fill="#756c63" d="M23 30h18l-2 14H25z"/><path stroke="#a64032" d="M21 46h23"/><path fill="#e8ddc4" d="M22 35 15 39m27-4 6 4"/><ellipse fill="#e8ddc4" cx="32" cy="22" rx="9" ry="10"/><path fill="#171513" d="M23 16q9-13 18 0z"/><path stroke="#756c63" d="M23 16h18"/><path fill="none" stroke-width="1.8" d="M27 21h2m7 0h2m-8 7h5"/><path fill="#e8ddc4" d="M44 29h14v25H44z"/><path d="M51 33v16"/></g></svg>
