<svg xmlns="http://www.w3.org/2000/svg" viewBox="0 0 64 64"><path d="M49 47q11 4 8 12-9 1-12-5z" fill="#a77d42" stroke="#51483e" stroke-width="1.5"/><path d="M9 60q2-18 15-22h19q12 4 13 22z" fill="#34454a" stroke="#171513" stroke-width="2.5"/><path d="M20 42l12 8 12-8-4 14H24z" fill="#263c3e" stroke="#171513" stroke-width="2"/><path d="M22 22q-1-12 10-14 13 1 12 15l-2 11q-5 5-11 4-8-3-9-16z" fill="#c99d7d" stroke="#171513" stroke-width="2.5"/><path d="M21 22q-1-13 11-14 12 1 13 14l-5-3-5-9-7 8-8 1z" fill="#171513"/><path d="M20 15q11-9 24 0l3 4H17z" fill="#42605f" stroke="#171513" stroke-width="2.5"/><path d="M25 30l6 2 3-2 4 2 6-2-4 4-6-1-6 1zM29 36q4 2 8 0l-2 4-3 3-3-4z" fill="#171513"/><path d="M20 13l-3 3m30-3 3 3" stroke="#77838d" stroke-width="2"/><circle cx="51" cy="51" r="2" fill="#e8ddc4"/></svg>
