<svg xmlns="http://www.w3.org/2000/svg" viewBox="0 0 64 64"><path d="M11 60q1-17 12-21h18q12 4 13 21z" fill="#dfd3ba" stroke="#171513" stroke-width="2.5"/><path d="M22 41l10 9 10-9" fill="#a64032" stroke="#171513" stroke-width="2"/><path d="M21 22q-2-11 10-13 13 1 12 14l-2 12q-5 6-11 4-8-3-9-17z" fill="#d5a783" stroke="#171513" stroke-width="2.5"/><path d="M20 22q0-15 12-15 12 1 12 12l-4-4-4-5-4 4-7 1z" fill="#171513"/><path d="M23 8h18l4 4H19z" fill="#e8ddc4" stroke="#171513" stroke-width="2.5"/><path d="M24 31q4-3 8 0 4-3 8 0l-4 2-4-1-4 1zM28 34q4 2 8 0l-2 5-2 7-3-6z" fill="#171513"/></svg>