<svg xmlns="http://www.w3.org/2000/svg" viewBox="0 0 64 64"><path d="M10 60q2-18 13-22h18q12 4 13 22z" fill="#77838d" stroke="#171513" stroke-width="2.5"/><path d="M21 42l11 8 11-8-3 13H24z" fill="#334b42" stroke="#171513" stroke-width="2"/><path d="M21 23q-1-12 11-14 13 1 12 15l-2 10q-5 6-11 4-8-3-10-15z" fill="#d5a783" stroke="#171513" stroke-width="2.5"/><path d="M21 23q0-14 11-14 12 1 13 13l-5-3-5-8-5 7-8 2zM27 7q4-7 9-3l1 6-5 4-5-2z" fill="#171513"/><path d="M25 30q4-3 7 0 4-3 8 0l-4 2-4-1-4 1z" fill="#171513"/><path d="M29 36h6" stroke="#5d4034" stroke-width="1.7" stroke-linecap="round"/></svg>