<svg xmlns="http://www.w3.org/2000/svg" viewBox="0 0 64 64"><path d="M14 55L23 8l3 1-7 48z" fill="#51483e"/><path d="M22 9l3-8 3 9-3 6z" fill="#77838d" stroke="#171513" stroke-width="1.5"/><path d="M9 60q2-18 16-22h18q12 4 13 22z" fill="#77838d" stroke="#171513" stroke-width="2.5"/><path d="M20 42l12 8 12-8-4 14H24z" fill="#e8ddc4" stroke="#171513" stroke-width="2"/><path d="M22 22q-1-12 10-14 13 1 12 15l-2 11q-5 5-11 4-8-3-9-16z" fill="#d5a783" stroke="#171513" stroke-width="2.5"/><path d="M20 21q0-13 12-14 12 1 13 14l-5-3-5-9-6 7-8 1z" fill="#171513"/><path d="M28 31h3m7 0h3" stroke="#171513" stroke-width="2.5" stroke-linecap="round"/><path d="M29 37h7" stroke="#5d4034" stroke-width="1.5" stroke-linecap="round"/></svg>
